<svg width="20" height="20" viewBox="0 0 20 20" fill="none" xmlns="http://www.w3.org/2000/svg">
<path fill-rule="evenodd" clip-rule="evenodd" d="M19.7991 16.5982L11.562 0.940356C11.1099 0.0824619 10.0454 -0.249117 9.18263 0.200883C8.86538 0.366672 8.60629 0.624567 8.43973 0.940356L0.201788 16.5982C-0.250294 17.4561 0.0828191 18.5167 0.945565 18.9667C1.1976 19.0982 1.47872 19.1667 1.76337 19.1667H18.2375C19.2113 19.1667 20 18.3816 20 17.4123C20 17.1289 19.9313 16.8491 19.7991 16.5982ZM9.11918 6.44299C9.11918 5.95878 9.51398 5.56579 10.0004 5.56579C10.4869 5.56579 10.8817 5.95878 10.8817 6.44299V11.7061C10.8817 12.1904 10.4869 12.5833 10.0004 12.5833C9.51398 12.5833 9.11918 12.1904 9.11918 11.7061V6.44299ZM10.0445 16.5395H10.0198C9.29807 16.5368 8.70587 15.9684 8.67855 15.25C8.65212 14.5351 9.21259 13.9351 9.93081 13.9088C9.93874 13.9088 9.94667 13.9079 9.95461 13.9079H9.97928C10.701 13.9088 11.2941 14.4763 11.3223 15.1947C11.3505 15.9088 10.7918 16.5105 10.0745 16.5386C10.0648 16.5386 10.0542 16.5395 10.0445 16.5395Z" fill="#8C8C8C"/>
</svg>