<svg width="20" height="20" viewBox="0 0 20 20" fill="none" xmlns="http://www.w3.org/2000/svg">
<path fill-rule="evenodd" clip-rule="evenodd" d="M10 0C4.47715 0 0 4.47715 0 10C0 15.5228 4.47715 20 10 20C15.5228 20 20 15.5228 20 10C19.994 4.47963 15.5204 0.00597071 10 0ZM10.2083 4.16667C10.8987 4.16667 11.4583 4.72631 11.4583 5.41667C11.4583 6.10702 10.8987 6.66667 10.2083 6.66667C9.51798 6.66667 8.95833 6.10702 8.95833 5.41667C8.95833 4.72631 9.51798 4.16667 10.2083 4.16667ZM12.0833 15.4167H8.75C8.28976 15.4167 7.91667 15.0436 7.91667 14.5833C7.91667 14.1231 8.28976 13.75 8.75 13.75H9.375C9.49006 13.75 9.58333 13.6567 9.58333 13.5417V9.79167C9.58333 9.67661 9.49006 9.58333 9.375 9.58333H8.75C8.28976 9.58333 7.91667 9.21024 7.91667 8.75C7.91667 8.28976 8.28976 7.91667 8.75 7.91667H9.58333C10.5038 7.91667 11.25 8.66286 11.25 9.58333V13.5417C11.25 13.6567 11.3433 13.75 11.4583 13.75H12.0833C12.5436 13.75 12.9167 14.1231 12.9167 14.5833C12.9167 15.0436 12.5436 15.4167 12.0833 15.4167Z" fill="#8C8C8C"/>
</svg>