<svg width="20" height="20" viewBox="0 0 20 20" fill="none" xmlns="http://www.w3.org/2000/svg">
<path fill-rule="evenodd" clip-rule="evenodd" d="M18.6853 8.13485L17.6303 7.76065C17.3247 7.65204 17.0796 7.41899 16.9556 7.11934C16.8317 6.81969 16.8406 6.48155 16.9802 6.18886L17.4602 5.17795C17.819 4.42151 17.6633 3.52116 17.0713 2.92916C16.4793 2.33716 15.579 2.18145 14.8225 2.54024L13.8116 3.02111C13.5188 3.16004 13.1808 3.16844 12.8814 3.04424C12.582 2.92003 12.3492 2.67483 12.2407 2.36939L11.8656 1.31514C11.5845 0.526544 10.8377 0 10.0005 0C9.16325 0 8.4165 0.526544 8.13533 1.31514L7.7603 2.37023C7.65162 2.67552 7.41875 2.92051 7.11937 3.04455C6.81999 3.16859 6.48209 3.16008 6.18934 3.02111L5.17843 2.54024C4.42199 2.18145 3.52164 2.33716 2.92964 2.92916C2.33764 3.52116 2.18193 4.42151 2.54072 5.17795L3.02076 6.18886C3.16005 6.48159 3.16883 6.81962 3.04494 7.11918C2.92105 7.41875 2.67607 7.65183 2.37071 7.76065L1.31562 8.13568C0.526821 8.41644 0 9.16314 0 10.0004C0 10.8377 0.526821 11.5844 1.31562 11.8651L2.37071 12.2402C2.67601 12.3488 2.92099 12.5817 3.0449 12.8812C3.1688 13.1806 3.16003 13.5185 3.02076 13.8111L2.54072 14.8221C2.18193 15.5785 2.33764 16.4788 2.92964 17.0708C3.52164 17.6628 4.42199 17.8186 5.17843 17.4598L6.18934 16.9797C6.48202 16.8402 6.82015 16.8314 7.11969 16.9555C7.41923 17.0796 7.65205 17.325 7.7603 17.6306L8.13533 18.6849C8.4165 19.4735 9.16325 20 10.0005 20C10.8377 20 11.5845 19.4735 11.8656 18.6849L12.2407 17.6298C12.3493 17.3245 12.5822 17.0795 12.8817 16.9556C13.1811 16.8317 13.519 16.8404 13.8116 16.9797L14.8225 17.4598C15.579 17.8186 16.4793 17.6628 17.0713 17.0708C17.6633 16.4788 17.819 15.5785 17.4602 14.8221L16.9802 13.8111C16.8409 13.5185 16.8322 13.1806 16.9561 12.8812C17.08 12.5817 17.3249 12.3488 17.6303 12.2402L18.6853 11.8643C19.4741 11.5836 20.001 10.8369 20.001 9.99958C20.001 9.16231 19.4741 8.4156 18.6853 8.13485ZM10.0005 13.987C8.393 13.9637 6.9468 13.005 6.29935 11.5335C5.45529 9.48962 6.42452 7.14818 8.46619 6.29888C10.5099 5.48154 12.8326 6.44301 13.7008 8.46572C14.5448 10.5096 13.5756 12.851 11.5339 13.7003C11.0479 13.9002 10.5259 13.9978 10.0005 13.987Z" fill="white"/>
</svg>
