<svg width="24" height="24" viewBox="0 0 24 24" fill="none" xmlns="http://www.w3.org/2000/svg">
<rect width="24" height="24" rx="12" fill="#D80027"/>
<path fill-rule="evenodd" clip-rule="evenodd" d="M10.8572 6.92859C12.5071 6.92859 13.9755 7.7055 14.9166 8.91343C14.1902 8.38571 13.2773 8.07145 12.2858 8.07145C9.91885 8.07145 8.00007 9.86231 8.00007 12.0714C8.00007 14.2806 9.91885 16.0714 12.2858 16.0714C13.2773 16.0714 14.1902 15.7572 14.9163 15.2296C13.9755 16.4374 12.5071 17.2143 10.8572 17.2143C8.01689 17.2143 5.71436 14.9118 5.71436 12.0714C5.71436 9.23112 8.01689 6.92859 10.8572 6.92859ZM16.0165 9.59071L16.5404 11.1552L18.1903 11.1701L16.8643 12.1519L17.36 13.7256L16.0165 12.7678L14.6729 13.7256L15.1687 12.1519L13.8426 11.1701L15.4925 11.1552L16.0165 9.59071Z" fill="white"/>
</svg>
